<svg width="12" height="15" xmlns="http://www.w3.org/2000/svg">
  <path d="M5.05 1.455a.955.955 0 0 1 1.91 0v9.686l2.945-2.634a.957.957 0 0 1 1.277 1.427l-4.583 4.122-.066.05-.036.023-.068.04-.133.066h-.29a.546.546 0 0 1-.188-.032h-.115l-.105-.052-.066-.036-.045-.028-.06-.042-.008-.008-.053-.042L.82 9.903a.957.957 0 1 1 1.278-1.427l2.954 2.66V1.455zm.956 12.78h.01c-.002-1-.002-1-.005-1h-.005v1zm-.046-.858l.164-.146a1.826 1.826 0 0 0-.162-.028h-.11l.098.088.005-.003.037.074.053-.106-.027-.014.009.004-.006-.004.015.008L6 13.224l-.04-.037v.19zm.004-.093l.017-.015-.03.024.1.09v-.177l-.087.078z" fill="#000" fill-rule="nonzero"/>
</svg>
