<?xml version="1.0" encoding="UTF-8"?>
<svg width="13px" height="13px" viewBox="0 0 13 13" version="1.1" xmlns="http://www.w3.org/2000/svg" xmlns:xlink="http://www.w3.org/1999/xlink">
    <!-- Generator: Sketch 52.6 (67491) - http://www.bohemiancoding.com/sketch -->
    <title>Fill 1</title>
    <desc>Created with Sketch.</desc>
    <g id="Page-1" stroke="none" stroke-width="1" fill="none" fill-rule="evenodd">
        <g id="Send-Money-Extention-V5" transform="translate(-1084.000000, -635.000000)">
            <g id="Modal" transform="translate(929.000000, 30.000000)">
                <g id="Group-27-Copy" transform="translate(20.000000, 592.000000)">
                    <g id="Page"></g>
                    <g id="Group-6" transform="translate(126.000000, 5.000000)" fill="#FFFFFF">
                        <path d="M20.8358072,9.05902798 C20.4294531,8.65219901 19.760875,8.65219901 19.3249974,9.05902798 L15.1693407,13.2195408 L10.9854972,9.05902798 C10.5791431,8.65219901 9.91056504,8.65219901 9.47468747,9.05902798 C9.06833334,9.46585695 9.06833334,10.1352163 9.47468747,10.5716032 L13.6585309,14.732116 L9.50287422,18.9208485 C9.09652009,19.3276775 9.09652009,19.9970368 9.50287422,20.4334237 C9.70605709,20.636844 9.99663633,20.7539062 10.2588603,20.7539062 C10.5199335,20.7539062 10.8105069,20.6379902 11.0148463,20.4334237 L15.1693407,16.2446912 L19.3531842,20.4334237 C19.5563671,20.636844 19.8469463,20.7539062 20.1091702,20.7539062 C20.3702435,20.7539062 20.6608169,20.6379902 20.8651563,20.4334237 C21.2715104,20.0265947 21.2715104,19.3572354 20.8651563,18.9208485 L16.6801505,14.732116 L20.8639939,10.5433835 C21.2714813,10.1354199 21.2714813,9.4660606 20.8356154,9.05920253 L20.8358072,9.05902798 Z" id="Fill-1"></path>
                    </g>
                </g>
            </g>
        </g>
    </g>
</svg>