<svg width="13" height="13" xmlns="http://www.w3.org/2000/svg"><g fill="none" fill-rule="evenodd"><path d="M11.836 1.059c-.407-.407-1.075-.407-1.511 0l-4.156 4.16-4.184-4.16C1.58.652.911.652.475 1.059c-.407.407-.407 1.076 0 1.513l4.184 4.16-4.156 4.189c-.406.407-.406 1.076 0 1.512.203.204.494.32.756.32.26 0 .552-.115.756-.32l4.154-4.188 4.184 4.188c.203.204.494.32.756.32.261 0 .552-.115.756-.32.407-.406.407-1.076 0-1.512L7.68 6.732l4.184-4.189a1.03 1.03 0 0 0-.028-1.484z" fill="#FFF"/></g></svg>