<svg width="63" height="63" xmlns="http://www.w3.org/2000/svg"><g fill="none" fill-rule="evenodd"><g fill-rule="nonzero"><circle fill="#1752EF" cx="31.5" cy="31.5" r="31.5"/><path d="M10.813 34.478c.382 0 .735-.063 1.07-.182.002.006.683.965.693.972-.616.3-1.26.433-1.964.433C8.519 35.7 7 34.45 7 32.453c0-2.01 1.597-3.262 3.612-3.262.717 0 1.283.142 1.852.418-.063.095-.649.998-.651 1.001a3.081 3.081 0 0 0-1.062-.181c-1.24 0-2.201.717-2.201 2.024 0 1.237.93 2.025 2.263 2.025zm5.279-5.287c2.061 0 3.55 1.322 3.55 3.262 0 1.926-1.489 3.248-3.55 3.248-2.046 0-3.534-1.321-3.534-3.248 0-1.94 1.488-3.262 3.534-3.262zm0 1.196c-1.147 0-1.985.801-1.985 2.066 0 1.252.838 2.053 1.985 2.053 1.178 0 2-.801 2-2.053 0-1.265-.822-2.066-2-2.066zm4.526 5.173v-6.228h1.534v6.228h-1.534zm-.202-8.14c0-.478.45-.857.961-.857.512 0 .961.379.961.857 0 .492-.449.886-.96.886-.512 0-.962-.394-.962-.886zm3.075 2.306a10.04 10.04 0 0 1 3.147-.535c1.751 0 2.867.605 2.867 2.362v4.007h-1.519v-3.88c0-.9-.62-1.223-1.473-1.223a5.82 5.82 0 0 0-1.488.183v4.92h-1.534v-5.834zM30.79 26h1.533v3.501c.326-.155.961-.31 1.566-.31 1.984 0 3.472 1.153 3.472 3.15 0 2.01-1.472 3.36-4.014 3.36a8.337 8.337 0 0 1-2.558-.408V26zm1.533 8.38a4.1 4.1 0 0 0 1.07.126c1.41 0 2.418-.703 2.418-2.137 0-1.21-.945-1.926-2.108-1.926-.604 0-1.07.14-1.38.295v3.642zm9.47-2.996c0-.674-.558-.983-1.317-.983-.79 0-1.41.21-1.984.506v-1.21c.604-.308 1.38-.506 2.232-.506 1.503 0 2.573.563 2.573 2.123v4.12c-.651.154-1.58.253-2.356.253-1.782 0-3.085-.492-3.085-1.898 0-1.265 1.193-1.884 3.178-1.884h.76v-.52zm0 1.449h-.65c-1.07 0-1.768.281-1.768.914 0 .646.652.9 1.581.9.233 0 .559-.029.837-.071v-1.743zm2.62 1.04c.635.436 1.394.703 2.092.703.682 0 1.132-.21 1.132-.703 0-.506-.403-.689-1.287-.9-1.426-.295-2.03-.815-2.03-1.897 0-1.266 1.054-1.885 2.449-1.885.775 0 1.394.155 1.968.478v1.28c-.605-.393-1.193-.633-1.922-.633-.666 0-1.023.295-1.023.703s.294.619 1.085.815c1.566.31 2.248.845 2.248 1.969 0 1.307-1.1 1.898-2.589 1.898-.806 0-1.612-.197-2.123-.506v-1.322zm6.812-1.11v.028c.093 1.11 1.147 1.715 2.216 1.715.946 0 1.628-.197 2.31-.605v1.224c-.62.393-1.535.576-2.418.576-2.139 0-3.596-1.237-3.596-3.205 0-1.983 1.426-3.304 3.317-3.304 2 0 2.945 1.167 2.945 2.867v.704h-4.774zm3.332-.9c-.03-.97-.557-1.504-1.55-1.504-.883 0-1.534.562-1.735 1.504h3.286z" fill="#FFF"/></g></g></svg>