<svg width="14" height="14" xmlns="http://www.w3.org/2000/svg"><path d="M14 5.092c0-.703-.57-1.274-1.274-1.274H5.092c-.703 0-1.274.57-1.274 1.274v7.634c0 .704.57 1.274 1.274 1.274h7.634C13.43 14 14 13.43 14 12.726V5.092zm-1.273-.001H5.091v7.636h7.636V5.091zM1.273 10.18A1.274 1.274 0 0 1 0 8.91V7.636h1.273V8.91h1.272v1.273H1.273zM0 1.274C0 .57.571 0 1.273 0h1.272v1.273H1.273v1.272H0V1.273zM8.91 0c.702 0 1.272.571 1.272 1.273v1.272H8.909V1.273H7.636V0H8.91zM6.363 0H3.818v1.273h2.546V0zM1.273 3.818H0v2.546h1.273V3.818z" fill="#34CD65" fill-rule="evenodd"/></svg>