<svg width="22" height="22" xmlns="http://www.w3.org/2000/svg"><path d="M21.083 10.025h-.128l-3.25.007-.156.002a.97.97 0 0 0-.892.969c0 .536.435.97.97.972h3.48a.978.978 0 0 0-.024-1.95zm-4.708-3.023L16.377 7l2.336-2.333.123-.125A.98.98 0 0 0 17.44 3.18l-.09.09-2.292 2.305-.11.111a.972.972 0 0 0 1.427 1.316zM10.999 0a.979.979 0 0 0-.977.915l.001.13.01 3.248v.157a.971.971 0 0 0 1.94-.077v-.005l.002-3.3V.89A.979.979 0 0 0 11 0zM7 5.62L4.667 3.287l-.125-.125a.98.98 0 0 0-1.363 1.397l.09.09L5.574 6.94l.112.11a.972.972 0 0 0 1.317-1.426L7 5.62zm-2.55 6.345a.973.973 0 0 0-.077-1.941H.89a.977.977 0 0 0 .025 1.95l.128.001 3.25-.01h.156zm1.174 3.03L5.62 15l-2.334 2.334-.124.123a.98.98 0 0 0 1.396 1.364l.09-.092 2.292-2.304.11-.111a.973.973 0 0 0-1.427-1.318zm6.342 2.556a.973.973 0 0 0-1.94.077v.004l-.002 3.301v.176a.98.98 0 0 0 1.952-.024v-.13l-.01-3.248v-.156zm6.764-.2l-2.304-2.291-.111-.11a.973.973 0 0 0-1.318 1.426l.003.004 2.332 2.334.125.122a.978.978 0 0 0 1.364-1.395l-.09-.09z" fill="#FFF" fill-rule="evenodd"/></svg>