<svg width="14" height="15" xmlns="http://www.w3.org/2000/svg"><g fill="#353A41" fill-rule="evenodd"><path d="M.583 3.694h1.833c.171.665.633 1.22 1.26 1.513a2.343 2.343 0 0 0 1.98 0 2.304 2.304 0 0 0 1.26-1.513h6.5A.58.58 0 0 0 14 3.117a.58.58 0 0 0-.583-.578h-6.5a2.303 2.303 0 0 0-1.26-1.512 2.343 2.343 0 0 0-1.98 0 2.304 2.304 0 0 0-1.26 1.512H.582A.58.58 0 0 0 0 3.117c0 .319.26.577.583.577zm4.084-1.732c.471 0 .897.281 1.077.713.181.431.081.928-.252 1.258-.334.33-.836.429-1.272.25-.436-.178-.72-.6-.72-1.066a1.16 1.16 0 0 1 1.167-1.155zM.583 8.312h6.5c.171.666.633 1.22 1.26 1.513a2.343 2.343 0 0 0 1.98 0 2.304 2.304 0 0 0 1.26-1.513h1.834A.58.58 0 0 0 14 7.735a.58.58 0 0 0-.583-.577h-1.834a2.303 2.303 0 0 0-1.26-1.513 2.343 2.343 0 0 0-1.98 0 2.304 2.304 0 0 0-1.26 1.513h-6.5A.58.58 0 0 0 0 7.735c0 .32.26.577.583.577zm8.75-1.731c.472 0 .898.28 1.078.712.18.432.081.928-.253 1.259-.334.33-.835.429-1.271.25-.436-.179-.72-.6-.72-1.067a1.16 1.16 0 0 1 1.166-1.154zM.583 12.931h1.833c.171.665.633 1.22 1.26 1.513a2.343 2.343 0 0 0 1.98 0 2.304 2.304 0 0 0 1.26-1.513h6.5a.58.58 0 0 0 .584-.577.58.58 0 0 0-.583-.578h-6.5a2.303 2.303 0 0 0-1.26-1.512 2.343 2.343 0 0 0-1.98 0 2.304 2.304 0 0 0-1.26 1.512H.582a.58.58 0 0 0-.583.578c0 .319.26.577.583.577zM4.667 11.2c.471 0 .897.281 1.077.713.181.432.081.928-.252 1.258-.334.33-.836.43-1.272.25-.436-.178-.72-.6-.72-1.066a1.16 1.16 0 0 1 1.167-1.155z"/></g></svg>