<?xml version="1.0" encoding="UTF-8"?>
<svg width="14px" height="15px" viewBox="0 0 14 15" version="1.1" xmlns="http://www.w3.org/2000/svg" xmlns:xlink="http://www.w3.org/1999/xlink">
    <!-- Generator: Sketch 53 (72520) - https://sketchapp.com -->
    <title>Group 8</title>
    <desc>Created with Sketch.</desc>
    <g id="Page-1" stroke="none" stroke-width="1" fill="none" fill-rule="evenodd">
        <g id="Send-Money-Extention-V5" transform="translate(-1170.000000, -567.000000)" fill="#353A41">
            <g id="Modal" transform="translate(929.000000, 30.000000)">
                <g id="Group-27-Copy-2" transform="translate(21.000000, 524.807339)">
                    <g id="Group-8" transform="translate(220.000000, 13.000000)">
                        <g id="Group-4">
                            <path d="M0.583333333,2.88659794 L2.41645833,2.88659794 C2.58736042,3.55187216 3.04934583,4.10663299 3.67654583,4.39917526 C4.30317708,4.69177526 5.03005417,4.69177526 5.65667083,4.39917526 C6.28387083,4.10657526 6.74587083,3.5518 6.91675833,2.88659794 L13.41655,2.88659794 C13.7389729,2.88659794 13.9998833,2.62837732 13.9998833,2.30927835 C13.9998833,1.99017938 13.7389729,1.73195876 13.41655,1.73195876 L6.91675833,1.73195876 C6.74585625,1.06668454 6.28387083,0.511923711 5.65667083,0.219381443 C5.03003958,-0.0732185567 4.3031625,-0.0732185567 3.67654583,0.219381443 C3.04934583,0.511981443 2.58734583,1.0667567 2.41645833,1.73195876 L0.583333333,1.73195876 C0.260910417,1.73195876 0,1.99017938 0,2.30927835 C0,2.62837732 0.260910417,2.88659794 0.583333333,2.88659794 Z M4.66666667,1.15463918 C5.13835,1.15463918 5.56387708,1.43596701 5.7444625,1.86726804 C5.92504792,2.29913196 5.82535479,2.79526598 5.49152917,3.12565155 C5.15770354,3.45603711 4.6564,3.55470103 4.2200375,3.37597732 C3.78424375,3.19725361 3.49998542,2.7761134 3.49998542,2.30929278 C3.49998542,1.6716433 4.02236042,1.15465361 4.66665208,1.15465361 L4.66666667,1.15463918 Z" id="Fill-1"></path>
                            <path d="M0.583333333,7.50515464 L7.083125,7.50515464 C7.25402708,8.17042887 7.7160125,8.72518969 8.3432125,9.01773196 C8.96984375,9.31033196 9.69672083,9.31033196 10.3233375,9.01773196 C10.9505375,8.72513196 11.4125375,8.1703567 11.583425,7.50515464 L13.41655,7.50515464 C13.7389729,7.50515464 13.9998833,7.24693402 13.9998833,6.92783505 C13.9998833,6.60873608 13.7389729,6.35051546 13.41655,6.35051546 L11.583425,6.35051546 C11.4125229,5.68524124 10.9505375,5.13048041 10.3233375,4.83793814 C9.69670625,4.54533814 8.96982917,4.54533814 8.3432125,4.83793814 C7.7160125,5.13053814 7.2540125,5.6853134 7.083125,6.35051546 L0.583333333,6.35051546 C0.260910417,6.35051546 0,6.60873608 0,6.92783505 C0,7.24693402 0.260910417,7.50515464 0.583333333,7.50515464 Z M9.33333333,5.77319588 C9.80501667,5.77319588 10.2305437,6.05452371 10.4111292,6.48582474 C10.5917146,6.91768866 10.4920215,7.41382268 10.1581958,7.74420825 C9.82437021,8.07459381 9.32306667,8.17325773 8.88670417,7.99453402 C8.45091042,7.81581031 8.16665208,7.3946701 8.16665208,6.92784948 C8.16665208,6.2902 8.68902708,5.77321031 9.33331875,5.77321031 L9.33333333,5.77319588 Z" id="Fill-2"></path>
                            <path d="M0.583333333,12.1237113 L2.41645833,12.1237113 C2.58736042,12.7889856 3.04934583,13.3437464 3.67654583,13.6362887 C4.30317708,13.9288885 5.03005417,13.9288885 5.65667083,13.6362887 C6.28387083,13.3436887 6.74587083,12.7889134 6.91675833,12.1237113 L13.41655,12.1237113 C13.7389729,12.1237113 13.9998833,11.8654907 13.9998833,11.5463918 C13.9998833,11.2272928 13.7389729,10.9690722 13.41655,10.9690722 L6.91675833,10.9690722 C6.74585625,10.3037979 6.28387083,9.74903711 5.65667083,9.45649485 C5.03003958,9.16389485 4.3031625,9.16389485 3.67654583,9.45649485 C3.04934583,9.74909485 2.58734583,10.3038701 2.41645833,10.9690722 L0.583333333,10.9690722 C0.260910417,10.9690722 0,11.2272928 0,11.5463918 C0,11.8654907 0.260910417,12.1237113 0.583333333,12.1237113 Z M4.66666667,10.3917526 C5.13835,10.3917526 5.56387708,10.6730804 5.7444625,11.1043814 C5.92504792,11.5362454 5.82535479,12.0323794 5.49152917,12.3627649 C5.15770354,12.6931505 4.6564,12.7918144 4.2200375,12.6130907 C3.78424375,12.434367 3.49998542,12.0132268 3.49998542,11.5464062 C3.49998542,10.9087567 4.02236042,10.391767 4.66665208,10.391767 L4.66666667,10.3917526 Z" id="Fill-3"></path>
                        </g>
                    </g>
                </g>
            </g>
        </g>
    </g>
</svg>