<svg width="63" height="63" xmlns="http://www.w3.org/2000/svg"><g fill="none" fill-rule="evenodd"><g><circle fill="#203043" fill-rule="nonzero" cx="31.5" cy="31.5" r="31.5"/><path d="M47.22 16.552L45.447 27.09l-6.304-7.354 8.077-3.183zM45.485 31.62l1.578 5.775-12.067 3.293 10.49-9.068zm-26.268-2.902l6.47-8.377h11.235l7.181 8.377H19.217zm24.055 2.07L31.573 40.9 19.658 30.788H43.27zM23.52 19.74l-5.781 7.485-1.776-10.634 7.557 3.149zm4.588 20.944l-12.182-3.288 1.67-5.635 10.512 8.923zm2.25 2.752l-2.3 2.508a38.257 38.257 0 0 0-6.379-4.85l8.679 2.342zm11.154-2.38a38.223 38.223 0 0 0-6.361 4.91l-2.349-2.533 8.71-2.377zm8.378-27.784l-12.685 4.999H25.38l-12.095-5.04 2.747 16.456-2.639 8.908 6.885 4.079a36.032 36.032 0 0 1 8.677 7.181l2.681 3.04L34.45 49.7a36.027 36.027 0 0 1 8.355-7l6.751-4.103-2.43-8.895 2.764-16.428z" fill="#FFFFFE"/></g></g></svg>